<?xml version="1.0" encoding="UTF-8"?>
<svg version="1.1" xmlns="http://www.w3.org/2000/svg" width="2000" height="1347">
<path d="M0 0 C1.16691377 -0.00512821 2.33382754 -0.01025642 3.53610234 -0.01554003 C5.4580283 -0.00872221 5.4580283 -0.00872221 7.41878105 -0.00176666 C8.80186536 -0.00400076 10.18494848 -0.00711125 11.56802907 -0.01101846 C15.39148228 -0.01925393 19.21483667 -0.01496028 23.03828993 -0.00872673 C27.20479276 -0.00413359 31.37127859 -0.01113014 35.53777806 -0.01666037 C42.87587061 -0.02478367 50.21393483 -0.02541263 57.55203025 -0.02124848 C68.53748997 -0.0150487 79.52292357 -0.02031303 90.50838138 -0.0278459 C109.22806913 -0.04033729 127.94774764 -0.0432546 146.66743894 -0.04101095 C165.64676057 -0.03876481 184.62607436 -0.04082057 203.60539479 -0.04815588 C204.80265822 -0.04861519 205.99992165 -0.04907449 207.23346578 -0.04954772 C212.10947018 -0.05143092 216.98547456 -0.05334229 221.86147893 -0.0552901 C272.08942815 -0.07532529 322.31737402 -0.08167465 372.54532637 -0.08282697 C378.02565876 -0.08295346 383.50599115 -0.08308651 388.98632354 -0.08322807 C390.35989132 -0.08326346 391.7334591 -0.08329821 393.10702688 -0.08333232 C423.92017195 -0.08410754 454.7333161 -0.08846345 485.54646072 -0.09359283 C492.42119386 -0.09473594 499.295927 -0.09584388 506.17066015 -0.09695409 C506.85305996 -0.09706434 507.53545978 -0.09717458 508.23853838 -0.09728816 C512.38079472 -0.09795716 516.52305106 -0.0986247 520.6653074 -0.09929129 C522.74032856 -0.09962545 524.81534971 -0.09996047 526.89037086 -0.10029557 C559.15447686 -0.10549955 591.41858294 -0.10996007 623.68268914 -0.11365996 C624.38570576 -0.1137407 625.08872238 -0.11382144 625.81304253 -0.11390462 C670.61817351 -0.1190316 715.42330397 -0.12082955 760.22843523 -0.12030396 C762.43197241 -0.12027845 764.6355096 -0.12025452 766.83904678 -0.12023113 C782.32015889 -0.12006645 797.80127099 -0.11986103 813.2823831 -0.11964538 C817.7212481 -0.11958384 822.1601131 -0.11952371 826.5989781 -0.11946375 C830.3015732 -0.11941356 834.00416829 -0.11936198 837.70676338 -0.11930752 C907.64454582 -0.1182846 977.58232364 -0.12112186 1047.52010388 -0.14000235 C1048.62464398 -0.14030042 1048.62464398 -0.14030042 1049.75149802 -0.14060452 C1072.75885975 -0.14682722 1095.76622133 -0.1535602 1118.77358289 -0.16038809 C1142.38051294 -0.1673908 1165.987443 -0.17433167 1189.59437318 -0.18091688 C1190.68464898 -0.18122146 1190.68464898 -0.18122146 1191.79695056 -0.18153219 C1237.30945635 -0.19422824 1282.82196082 -0.20207379 1328.33446832 -0.20463286 C1329.03727357 -0.20467291 1329.74007882 -0.20471297 1330.46418121 -0.20475424 C1361.32797387 -0.20650479 1392.19176647 -0.20714446 1423.05555918 -0.20657246 C1435.47168256 -0.2063439 1447.88780595 -0.20623176 1460.30392933 -0.20616582 C1462.36261588 -0.20615302 1464.42130243 -0.20613487 1466.47998897 -0.20611552 C1497.97950713 -0.20584245 1529.47902106 -0.20853943 1560.97853727 -0.22020588 C1561.99791317 -0.2205829 1561.99791317 -0.2205829 1563.03788252 -0.22096753 C1573.97025824 -0.22502572 1584.90263386 -0.22931372 1595.83500948 -0.23362114 C1640.61191992 -0.25124907 1685.38881617 -0.2563267 1730.16572962 -0.24290051 C1736.25313268 -0.24107579 1742.34053577 -0.23938927 1748.42793889 -0.23778448 C1749.62128793 -0.23746431 1750.81463697 -0.23714413 1752.0441481 -0.23681426 C1770.9748994 -0.23209977 1789.90561982 -0.24084291 1808.8363653 -0.25512686 C1827.43036974 -0.26887719 1846.02432837 -0.26845686 1864.61833176 -0.25274258 C1875.5327654 -0.24394761 1886.44706451 -0.24619914 1897.36148714 -0.26447615 C1904.59920496 -0.27551201 1911.8368218 -0.27218707 1919.07453174 -0.25691059 C1923.18448492 -0.24864539 1927.29417227 -0.24671908 1931.40410977 -0.26241197 C1935.13178773 -0.27652949 1938.85897406 -0.27230529 1942.58662644 -0.25334459 C1944.55564477 -0.2480688 1946.52468585 -0.26241358 1948.49365302 -0.27755698 C1956.01396173 -0.21593128 1961.97965833 0.29978981 1967.72663539 5.66310177 C1972.86653175 11.41994501 1973.67307901 16.77443238 1973.52626843 24.2434205 C1972.92009318 30.07785731 1970.63376516 34.2416429 1966.27626843 38.126233 C1961.61958943 41.35739803 1958.08656791 42.50111474 1952.42753687 42.50246601 C1951.2606231 42.50759422 1950.09370932 42.51272243 1948.89143453 42.51800604 C1946.96950857 42.51118822 1946.96950857 42.51118822 1945.00875581 42.50423267 C1943.62567151 42.50646677 1942.24258839 42.50957726 1940.8595078 42.51348447 C1937.03605459 42.52171994 1933.2127002 42.51742629 1929.38924694 42.51119274 C1925.2227441 42.50659959 1921.05625827 42.51359614 1916.88975881 42.51912638 C1909.55166626 42.52724968 1902.21360204 42.52787864 1894.87550661 42.52371449 C1883.8900469 42.51751471 1872.9046133 42.52277904 1861.91915549 42.53031191 C1843.19946774 42.5428033 1824.47978923 42.54572061 1805.76009793 42.54347696 C1786.7807763 42.54123082 1767.80146251 42.54328658 1748.82214208 42.55062189 C1747.62487865 42.5510812 1746.42761522 42.5515405 1745.19407108 42.55201373 C1740.31806669 42.55389693 1735.4420623 42.5558083 1730.56605793 42.55775611 C1680.33810872 42.5777913 1630.11016285 42.58414066 1579.88221049 42.58529298 C1574.4018781 42.58541947 1568.92154572 42.58555252 1563.44121333 42.58569408 C1562.06764555 42.58572947 1560.69407777 42.58576422 1559.32050999 42.58579833 C1528.50736492 42.58657355 1497.69422076 42.59092946 1466.88107615 42.59605883 C1460.00634301 42.59720195 1453.13160987 42.59830989 1446.25687672 42.5994201 C1445.57447691 42.59953034 1444.89207709 42.59964059 1444.18899849 42.59975417 C1440.04674215 42.60042317 1435.90448581 42.60109071 1431.76222947 42.6017573 C1429.68720831 42.60209146 1427.61218716 42.60242648 1425.537166 42.60276157 C1393.27306001 42.60796556 1361.00895393 42.61242608 1328.74484773 42.61612596 C1327.6903228 42.61624707 1327.6903228 42.61624707 1326.61449434 42.61637063 C1281.80936336 42.62149761 1237.0042329 42.62329555 1192.19910164 42.62276997 C1189.99556446 42.62274446 1187.79202727 42.62272053 1185.58849008 42.62269714 C1170.10737798 42.62253246 1154.62626587 42.62232704 1139.14515377 42.62211138 C1134.70628877 42.62204985 1130.26742377 42.62198972 1125.82855876 42.62192976 C1122.12596367 42.62187957 1118.42336858 42.62182799 1114.72077348 42.62177353 C1044.78299105 42.62075061 974.84521323 42.62358787 904.90743298 42.64246836 C903.80289288 42.64276643 903.80289288 42.64276643 902.67603884 42.64307053 C879.66867711 42.64929323 856.66131554 42.65602621 833.65395398 42.6628541 C810.04702393 42.66985681 786.44009386 42.67679768 762.83316369 42.68338289 C761.74288788 42.68368747 761.74288788 42.68368747 760.63058631 42.6839982 C715.11808052 42.69669425 669.60557604 42.7045398 624.09306855 42.70709886 C623.3902633 42.70713892 622.68745804 42.70717897 621.96335566 42.70722024 C591.099563 42.7089708 560.23577039 42.70961047 529.37197769 42.70903847 C516.9558543 42.7088099 504.53973092 42.70869777 492.12360753 42.70863183 C490.06492099 42.70861903 488.00623444 42.70860087 485.9475479 42.70858153 C454.44802974 42.70830846 422.94851581 42.71100544 391.44899959 42.72267189 C390.4296237 42.7230489 390.4296237 42.7230489 389.38965435 42.72343353 C378.45727863 42.72749173 367.52490301 42.73177973 356.59252739 42.73608715 C311.81561694 42.75371508 267.0387207 42.75879271 222.26180724 42.74536652 C216.17440419 42.7435418 210.0870011 42.74185528 203.99959798 42.74025049 C202.80624894 42.73993032 201.6128999 42.73961014 200.38338876 42.73928026 C181.45263747 42.73456578 162.52191705 42.74330891 143.59117157 42.75759286 C124.99716713 42.7713432 106.4032085 42.77092287 87.8092051 42.75520859 C76.89477147 42.74641362 65.98047236 42.74866515 55.06604973 42.76694216 C47.82833191 42.77797802 40.59071507 42.77465308 33.35300512 42.7593766 C29.24305195 42.7511114 25.1333646 42.74918509 21.0234271 42.76487797 C17.29574914 42.7789955 13.5685628 42.7747713 9.84091042 42.7558106 C7.87189209 42.75053481 5.90285102 42.76487959 3.93388385 42.78002299 C-3.58642486 42.71839729 -9.55212146 42.20267619 -15.29909852 36.83936424 C-20.43899488 31.082521 -21.24554214 25.72803363 -21.09873157 18.2590455 C-20.49255631 12.4246087 -18.20622829 8.26082311 -13.84873157 4.376233 C-9.19205256 1.14506798 -5.65903105 0.00135127 0 0 Z " fill="#FFFFFF" transform="translate(23.786231566220522,739.7487669959664)"/>
<path d="M0 0 C0.7219759 -0.00205263 1.44395181 -0.00410527 2.18780577 -0.0062201 C4.60780319 -0.01187593 7.02774343 -0.0104346 9.44774628 -0.00901413 C11.20011253 -0.01159859 12.95247819 -0.01461197 14.70484304 -0.01801753 C19.52133175 -0.02608148 24.33780555 -0.02787677 29.15430021 -0.028615 C34.34878914 -0.03046663 39.54327036 -0.03801459 44.73775482 -0.04475021 C56.09748033 -0.05833033 67.45720231 -0.06435791 78.81693459 -0.06876087 C85.91178334 -0.07152415 93.00663074 -0.07576169 100.10147858 -0.08026505 C119.7495668 -0.09245788 139.39765393 -0.10275678 159.04574585 -0.10614014 C160.30321565 -0.1063597 161.56068545 -0.10657927 162.85626039 -0.10680549 C164.1167232 -0.10702377 165.37718601 -0.10724204 166.67584467 -0.10746694 C169.22997952 -0.1079104 171.78411436 -0.10835696 174.33824921 -0.10880661 C175.60518574 -0.10902804 176.87212228 -0.10924947 178.17745084 -0.10947761 C198.69884939 -0.11342424 219.2202124 -0.13087408 239.74159724 -0.15416613 C260.81658747 -0.17789317 281.89155989 -0.19034262 302.9665637 -0.19150805 C314.79690454 -0.19242412 326.62719909 -0.19815901 338.45752716 -0.21632767 C348.53310528 -0.23174697 358.6086228 -0.23683834 368.68421048 -0.22858956 C373.8221083 -0.22468941 378.95988415 -0.22558166 384.09776688 -0.23964691 C388.80827429 -0.25242387 393.51856857 -0.25115509 398.22907585 -0.2390562 C399.92631003 -0.23710575 401.6235595 -0.24014724 403.32077223 -0.24890056 C426.26311567 -0.35966143 446.14642455 5.59797629 463.23375702 21.62752151 C478.00909032 36.95274586 484.8219779 55.59951991 484.77924728 76.66205406 C484.78232623 78.08002611 484.78232623 78.08002611 484.78546739 79.52664405 C484.79113038 82.70026711 484.78968101 85.87384668 484.78826141 89.04747391 C484.79084542 91.34334134 484.79385868 93.63920833 484.79726481 95.93507469 C484.80533334 102.24888346 484.8071243 108.56268086 484.80786228 114.87649417 C484.80904005 120.98468537 484.81584097 127.09287173 484.82194069 133.20105958 C484.83798717 149.55965885 484.84390162 165.91825716 484.84868944 182.27686288 C484.85102589 190.01368321 484.85462851 197.7505028 484.85838482 205.48732255 C484.87121667 231.96737439 484.88193811 258.44742582 484.88538742 284.9274807 C484.88560905 286.58908494 484.88583084 288.25068918 484.88605277 289.91229343 C484.88627341 291.57790664 484.8864939 293.24351986 484.88671422 294.90913308 C484.88715677 298.25064667 484.88760389 301.59216027 484.88805389 304.93367386 C484.88816328 305.7621724 484.88827268 306.59067093 484.88838538 307.44427549 C484.89201886 334.32956371 484.90795171 361.21482501 484.93124426 388.10010291 C484.95582243 416.52118828 484.96955924 444.94225825 484.97075534 473.36335456 C484.9709268 476.48104151 484.97114223 479.59872846 484.97138977 482.71641541 C484.97144554 483.48408445 484.97150131 484.2517535 484.97155877 485.04268525 C484.97271069 497.41089551 484.98374425 509.77907819 484.99827683 522.14727913 C485.01261986 534.56850164 485.01589117 546.98968866 485.00783685 559.41091718 C485.00376494 566.14360748 485.00492465 572.87619906 485.0188942 579.60887909 C485.03155303 585.76588998 485.03050666 591.92273702 485.01830348 598.07974742 C485.01633255 600.31312671 485.01948861 602.54651729 485.02814785 604.77988066 C485.03913651 607.80428376 485.03182658 610.82809788 485.01975632 613.85248375 C485.02735151 614.72936381 485.0349467 615.60624388 485.04277205 616.50969607 C484.99229226 622.32670824 484.09584248 625.70683239 479.84180576 629.92015797 C476.94223359 631.52097211 474.8519506 631.50862137 471.54403973 631.5117445 C470.28433682 631.52018444 469.02463391 631.52862438 467.72675818 631.53732008 C466.32611043 631.53152454 464.92546383 631.5254435 463.52481842 631.51910782 C462.03887476 631.52327931 460.55293428 631.5287558 459.06699973 631.53542763 C454.97756345 631.54992705 450.88832794 631.54562344 446.79888046 631.53826082 C442.39028696 631.53354211 437.98173771 631.54602797 433.57315826 631.55627823 C424.93120487 631.57350132 416.28932407 631.5742984 407.64735796 631.56906532 C400.61906511 631.56502631 393.59079373 631.56646401 386.56250191 631.57181358 C385.56269394 631.57256201 384.56288598 631.57331043 383.5327808 631.57408153 C381.5016389 631.57561301 379.470497 631.57715136 377.43935511 631.5786965 C358.37459423 631.59243604 339.30987432 631.58697528 320.24511436 631.57551128 C302.82170587 631.56559337 285.3984038 631.57849202 267.97501173 631.60244548 C250.07879522 631.62686301 232.1826282 631.63643684 214.28639537 631.62979275 C204.24170995 631.62630436 194.1971062 631.62850658 184.1524334 631.64604378 C175.59451601 631.66079961 167.03673772 631.66135795 158.47882297 631.64397287 C154.1164508 631.63548527 149.75432673 631.63325776 145.39196777 631.64862442 C141.38871608 631.66255054 137.38592313 631.65760777 133.38269744 631.63838518 C131.94379916 631.63464871 130.50486344 631.63747831 129.06599876 631.64799684 C116.23078552 631.73506126 103.96235225 629.52166533 92.46031952 623.56892776 C91.80233368 623.23377151 91.14434784 622.89861526 90.46642303 622.55330276 C83.50609869 618.81367887 78.08350196 613.80018694 72.64781952 608.13142776 C71.61721405 607.07761917 71.61721405 607.07761917 70.56578827 606.00252151 C60.7259025 595.39087999 55.30449537 582.41184456 53.64781952 568.13142776 C52.87933182 568.14031021 52.11084412 568.14919266 51.31906891 568.15834427 C44.00985308 568.23912063 36.70085937 568.29970779 29.39131069 568.33867645 C25.63506424 568.35938545 21.87919231 568.38738913 18.12316132 568.43318558 C14.48561336 568.47725029 10.84842125 568.5006896 7.2106266 568.51093674 C5.83579736 568.51822125 4.4609834 568.53243898 3.08630943 568.55434799 C-9.77996181 568.75089667 -22.01227955 566.53479433 -33.53968048 560.56892776 C-34.19766632 560.23377151 -34.85565216 559.89861526 -35.53357697 559.55330276 C-42.49390131 555.81367887 -47.91649804 550.80018694 -53.35218048 545.13142776 C-54.38278595 544.07761917 -54.38278595 544.07761917 -55.43421173 543.00252151 C-70.74656804 526.48919609 -73.66462812 505.98349433 -73.61287689 484.39528275 C-73.61590096 482.60218976 -73.61979172 480.80909805 -73.62446946 479.01600862 C-73.63472542 474.11011367 -73.63257376 469.204292 -73.62828887 464.2983911 C-73.62581726 458.99898989 -73.63484124 453.69960612 -73.64232635 448.40021133 C-73.65506361 438.02599281 -73.65686823 427.65180019 -73.65452609 417.27757517 C-73.65274157 408.84260817 -73.65449547 400.40764901 -73.65875053 391.97268295 C-73.65934572 390.77122205 -73.65994091 389.56976114 -73.66055414 388.33189233 C-73.66176592 385.89094017 -73.66298005 383.44998801 -73.66419651 381.00903586 C-73.67506845 358.12672488 -73.67291129 335.24442865 -73.66681167 312.36211684 C-73.6616437 291.44401817 -73.67289541 270.52596609 -73.69190989 249.60787663 C-73.71129796 228.11348568 -73.71954253 206.61911675 -73.71578664 185.124717 C-73.71387595 173.06359146 -73.71634916 161.00250557 -73.73050117 148.94138718 C-73.74242833 138.67271843 -73.74380492 128.40411372 -73.73171101 118.13544407 C-73.72583153 112.90017885 -73.72469712 107.66503068 -73.73671341 102.42977333 C-73.74760321 97.62935552 -73.74443214 92.82915205 -73.73045173 88.02874413 C-73.72781329 86.30001543 -73.73014424 84.57126976 -73.73818759 82.84255776 C-73.83964802 59.39275979 -68.32079032 39.09669714 -51.85608673 21.54549026 C-37.7266494 7.92303742 -19.6809102 0.01910281 0 0 Z M-38.83655548 39.90486526 C-50.29244267 53.79052331 -51.65462183 69.31273368 -51.61287689 86.61565018 C-51.61590028 88.393519 -51.61979071 90.17138653 -51.62446946 91.94925177 C-51.63473391 96.81759177 -51.63257159 101.68585799 -51.62828887 106.55420399 C-51.62581884 111.81130196 -51.63483923 117.0683823 -51.64232635 122.32547379 C-51.65506752 132.61794272 -51.65686778 142.91038556 -51.65452609 153.20286106 C-51.65274218 161.56970462 -51.65449415 169.93654026 -51.65875053 178.30338287 C-51.65934572 179.49474399 -51.65994091 180.68610511 -51.66055414 181.91356809 C-51.6617659 184.33391097 -51.66298004 186.75425386 -51.66419651 189.17459674 C-51.67506974 211.86605523 -51.67291054 234.55749886 -51.66681167 257.24895819 C-51.66164229 278.00101758 -51.6728989 298.75303004 -51.69190989 319.50508015 C-51.71128842 340.82201305 -51.71954428 362.13892374 -51.71578664 383.4558655 C-51.71387467 395.42021837 -51.71636177 407.38453128 -51.73050117 419.34887695 C-51.74241609 429.53384693 -51.74381855 439.71875236 -51.73171101 449.90372322 C-51.72582325 455.0981048 -51.72472016 460.29236831 -51.73671341 465.48674202 C-51.74757493 470.24633426 -51.74446556 475.00570989 -51.73045173 479.765292 C-51.72780556 481.48255718 -51.73016877 483.19983935 -51.73818759 484.91708784 C-51.81607961 502.84951247 -48.64403323 518.48983923 -35.83655548 531.87752151 C-26.24124271 540.58270307 -14.3074552 546.27238624 -1.27674103 546.24495316 C0.52456017 546.24483986 0.52456017 546.24483986 2.36225128 546.24472427 C4.29218178 546.23698235 4.29218178 546.23698235 6.26110077 546.22908401 C7.59916887 546.22721732 8.93723767 546.2257946 10.2753067 546.2247963 C13.78517822 546.22099091 17.29500791 546.21117765 20.80486298 546.20009232 C24.39118128 546.18983554 27.97750638 546.18528955 31.56383514 546.18025589 C38.59184705 546.16955349 45.61983127 546.15250098 52.64781952 546.13142776 C52.71631256 500.55321018 52.77999248 454.97498732 52.81719208 409.39673233 C52.81774431 408.72185305 52.81829653 408.04697377 52.8188655 407.35164361 C52.83083792 392.68369215 52.84191854 378.01574014 52.85208084 363.34778731 C52.85707006 356.15432945 52.86225629 348.96087174 52.86754608 341.76741409 C52.86806912 341.05158947 52.86859215 340.33576484 52.86913104 339.59824856 C52.88616774 316.40822627 52.91620649 293.21824304 52.9530084 270.0282444 C52.99076734 246.19183035 53.01536792 222.3554379 53.02347948 198.51899445 C53.02463205 195.15006131 53.0259346 191.78112825 53.02732849 188.41219521 C53.02759818 187.74915947 53.02786788 187.08612374 53.02814574 186.40299602 C53.03315853 175.08480187 53.05443507 163.76669513 53.07948539 152.44853022 C53.10063272 142.38082299 53.10701903 132.31317372 53.10182503 122.24544588 C53.09926363 116.43731921 53.10318424 110.6293885 53.12464142 104.82129669 C53.14415884 99.49931301 53.14505568 94.17765641 53.1314151 88.85565742 C53.12973011 86.93484004 53.13476003 85.01400194 53.14735225 83.0932251 C53.2601313 64.82127837 49.8653948 50.15386542 37.04625702 36.30330276 C30.13279059 30.04289994 21.73701693 25.30086583 12.64781952 23.13142776 C11.71969452 22.90455276 10.79156952 22.67767776 9.83531952 22.44392776 C-9.09469866 20.58804363 -25.58385101 25.83839824 -38.83655548 39.90486526 Z M53.64781952 22.13142776 C54.06095901 22.68191788 54.47409851 23.23240799 54.89975739 23.79957962 C55.4410881 24.52107193 55.98241882 25.24256424 56.5401535 25.98591995 C57.077043 26.70141006 57.6139325 27.41690018 58.16709137 28.15407181 C71.25333496 45.62936714 74.10787048 63.19328631 74.01963043 84.49307632 C74.02220836 86.54704556 74.02611241 88.60101348 74.03122002 90.65497798 C74.04145479 96.27275555 74.03321686 101.8903751 74.02192318 107.50814497 C74.01304625 113.57713467 74.02158001 119.64610256 74.02812958 125.71509171 C74.03727471 136.22488933 74.03601013 146.73464876 74.02794456 157.24444389 C74.01649185 172.45714929 74.02570039 187.66979431 74.04050637 202.88249429 C74.04739775 209.9795309 74.05334046 217.0765683 74.05908298 224.17360592 C74.05965972 224.88397263 74.06023646 225.59433933 74.06083068 226.3262323 C74.07434526 243.21808291 74.07894006 260.10993374 74.08165741 277.00178909 C74.08178056 277.74045109 74.0819037 278.47911308 74.08203058 279.24015877 C74.08474511 295.7233581 74.08565999 312.206557 74.08460693 328.6897565 C74.08418211 335.41648872 74.08387461 342.14322093 74.08361053 348.86995316 C74.08357776 349.60775415 74.08354498 350.34555514 74.08351121 351.10571373 C74.08282499 367.9634381 74.08544901 384.82115119 74.09976292 401.6788702 C74.10036459 402.38817749 74.10096626 403.09748478 74.10158616 403.82828622 C74.10768517 410.911379 74.11445283 417.99447084 74.12217169 425.07756204 C74.13861667 440.26919675 74.14470223 455.4607301 74.12933234 470.65236805 C74.11832526 481.72881188 74.12157819 492.80519284 74.13852339 503.88163332 C74.14720568 509.8765338 74.14938665 515.87125121 74.13399696 521.86614227 C74.12000197 527.36171611 74.12459745 532.85695948 74.14351798 538.35251566 C74.14710979 540.3328828 74.14404224 542.31327655 74.13336831 544.29361818 C74.05509261 559.87491254 74.9008623 575.19579081 84.64781952 588.13142776 C85.52760468 589.29931839 85.52760468 589.29931839 86.42516327 590.49080276 C94.4762484 600.30357728 106.10946081 607.00916554 118.64781952 609.13142776 C120.64218836 609.21905466 122.63914134 609.25520231 124.63543415 609.25447559 C125.84367747 609.25646664 127.05192079 609.25845769 128.29677755 609.26050907 C129.6340727 609.25765624 130.97136765 609.25471065 132.30866241 609.25168228 C133.73190921 609.25211838 135.15515593 609.25299401 136.57840222 609.25427145 C140.48925713 609.25650876 144.40008467 609.25250553 148.31093609 609.24749339 C152.52833819 609.24317814 156.74573872 609.24463608 160.9631424 609.24539566 C168.27005441 609.24592021 175.5769575 609.24278057 182.88386726 609.23715782 C193.4484547 609.22903354 204.01303782 609.22642665 214.57762804 609.22516983 C231.71764548 609.22298077 248.85765817 609.21632464 265.99767303 609.20686722 C282.64838894 609.19768932 299.29910355 609.19061033 315.94982147 609.18635941 C317.48914076 609.18596532 317.48914076 609.18596532 319.05955742 609.18556327 C324.20772475 609.18425824 329.35589209 609.18299453 334.50405943 609.18175137 C377.21864942 609.17138331 419.93323423 609.15376896 462.64781952 609.13142776 C462.69918441 557.83298793 462.74694499 506.53454625 462.77484894 455.2360878 C462.77547019 454.0968925 462.77547019 454.0968925 462.776104 452.93468316 C462.78508312 436.42873946 462.79339361 419.92279548 462.80101551 403.41685109 C462.80475745 395.32211682 462.80864712 387.22738263 462.81261444 379.13264847 C462.81300672 378.32713328 462.813399 377.52161809 462.81380316 376.69169336 C462.82658285 350.59157296 462.84911354 324.49147208 462.87671118 298.3913635 C462.90502427 271.5658531 462.9234794 244.74035351 462.92956449 217.91482843 C462.93042893 214.12425746 462.93140584 210.33368653 462.93245125 206.54311562 C462.93265352 205.79709086 462.93285579 205.05106609 462.93306418 204.28243452 C462.93660671 192.28270021 462.9505138 180.28299931 462.96831562 168.28327861 C462.98599886 156.21393169 462.99271807 144.14461783 462.98832365 132.07525841 C462.98624547 125.5380813 462.98935698 119.00098297 463.00543594 112.46382141 C463.02005673 106.47573742 463.02075756 100.48781701 463.0105162 94.49972542 C463.0092508 92.33665185 463.0130377 90.17356798 463.02246907 88.01051459 C463.10154783 68.7497085 461.55081224 51.6143087 447.27281952 37.13142776 C437.21801175 27.69305917 424.2516426 22.00358926 410.36347485 22.00837994 C409.08904701 22.00638889 407.81461917 22.00439784 406.50157231 22.00234646 C405.08960241 22.00519934 403.67763269 22.00814493 402.26566315 22.01117325 C400.76404515 22.01073718 399.26242723 22.00986162 397.76080972 22.00858408 C393.63332546 22.0063461 389.5058671 22.01035092 385.37838614 22.01536214 C380.92785303 22.01967642 376.47732141 22.01821952 372.0267868 22.01745987 C364.31553742 22.01693526 356.6042965 22.02007554 348.89304924 22.02569771 C337.74384912 22.03382116 326.5946531 22.0364288 315.44545034 22.0376857 C297.35706132 22.03987489 279.2686768 22.04653137 261.18029022 22.05598831 C243.60802483 22.06516587 226.03576066 22.07224502 208.46349335 22.07649612 C207.38052757 22.07675885 206.29756179 22.07702157 205.18177887 22.07729226 C199.74891418 22.07859728 194.31604949 22.07986099 188.88318479 22.08110416 C143.80472658 22.09147262 98.72627328 22.10908733 53.64781952 22.13142776 Z " fill="#FFFFFF" transform="translate(794.352180480957,1.8685722351074219)"/>
<path d="M0 0 C3.3234364 1.10781213 4.0337082 1.93255155 6.21484375 4.55859375 C9.86588301 8.86040803 13.68071564 12.96906941 17.5625 17.0625 C18.97812478 18.56095214 20.39348445 20.05965478 21.80859375 21.55859375 C22.51226074 22.30351074 23.21592773 23.04842773 23.94091797 23.81591797 C27.01356964 27.07510007 30.07071291 30.34861448 33.125 33.625 C33.69420166 34.23545166 34.26340332 34.84590332 34.84985352 35.47485352 C35.99408109 36.70221498 37.13820594 37.9296722 38.28222656 39.15722656 C41.18659237 42.27293906 44.09343299 45.38634111 47 48.5 C48.16667826 49.74998918 49.33334493 50.99998917 50.5 52.25 C51.0775 52.86875 51.655 53.4875 52.25 54.125 C96 101 139.75 147.875 183.5 194.75 C184.07766113 195.36891113 184.65532227 195.98782227 185.25048828 196.62548828 C186.41557375 197.87381737 187.58061291 199.12218967 188.74560547 200.37060547 C191.68608369 203.52152888 194.62739654 206.67166566 197.5703125 209.8203125 C205.07660235 217.85321517 212.54943909 225.9153488 220 234 C223.96 238.29 227.92 242.58 232 247 C232.33 169.12 232.66 91.24 233 11 C246.53 11 260.06 11 274 11 C274 125.18 274 239.36 274 357 C272.35 355.35 270.7 353.7 269 352 C268.12601562 351.13761719 267.25203125 350.27523438 266.3515625 349.38671875 C265.00191406 348.05060547 265.00191406 348.05060547 263.625 346.6875 C262.73039062 345.80449219 261.83578125 344.92148438 260.9140625 344.01171875 C258.08517562 341.14867246 255.46519078 338.12243987 252.83007812 335.08178711 C249.78583292 331.61883635 246.60981774 328.28278178 243.4375 324.9375 C242.02187522 323.43904786 240.60651555 321.94034522 239.19140625 320.44140625 C238.48773926 319.69648926 237.78407227 318.95157227 237.05908203 318.18408203 C233.98643036 314.92489993 230.92928709 311.65138552 227.875 308.375 C227.30579834 307.76454834 226.73659668 307.15409668 226.15014648 306.52514648 C225.00591891 305.29778502 223.86179406 304.0703278 222.71777344 302.84277344 C219.81340763 299.72706094 216.90656701 296.61365889 214 293.5 C212.83332174 292.25001082 211.66665507 291.00001083 210.5 289.75 C209.9225 289.13125 209.345 288.5125 208.75 287.875 C169.66666667 246 130.58333333 204.125 91.5 162.25 C90.92233887 161.63108887 90.34467773 161.01217773 89.74951172 160.37451172 C88.58442625 159.12618263 87.41938709 157.87781033 86.25439453 156.62939453 C83.31391631 153.47847112 80.37260346 150.32833434 77.4296875 147.1796875 C71.91672133 141.27989953 66.41122994 135.37373081 60.9375 129.4375 C54.64072127 122.61046622 48.31969531 115.80582572 42 109 C41.67 186.88 41.34 264.76 41 345 C27.47 345 13.94 345 0 345 C0 231.15 0 117.3 0 0 Z " fill="#FFFFFF" transform="translate(8,889)"/>
<path d="M0 0 C32.14478187 -0.86038343 59.18849985 10.04641673 82.76367188 31.79931641 C103.4500023 51.60899222 115.88580671 80.21604944 116.52134705 108.70687866 C117.02230132 142.97936288 107.26127238 172.12675206 83.50610352 197.18237305 C63.55573587 217.55180317 37.94810276 229.22321271 9.33886719 229.63452148 C7.9772275 229.64403285 6.6155702 229.6513099 5.25390625 229.65625 C3.98321289 229.66277588 2.71251953 229.66930176 1.40332031 229.67602539 C-10.48891457 229.51492369 -22.09867533 227.6077158 -33.30859375 223.53125 C-34.0061377 223.27964111 -34.70368164 223.02803223 -35.42236328 222.76879883 C-40.56724854 220.8268852 -45.43233666 218.49789669 -50.24609375 215.84375 C-50.85122803 215.51358887 -51.4563623 215.18342773 -52.07983398 214.84326172 C-58.35020074 211.21415937 -63.07592832 206.89774899 -68.87109375 202.15625 C-69.20109375 247.03625 -69.53109375 291.91625 -69.87109375 338.15625 C-83.40109375 338.15625 -96.93109375 338.15625 -110.87109375 338.15625 C-110.87109375 227.60625 -110.87109375 117.05625 -110.87109375 3.15625 C-98.33109375 3.15625 -85.79109375 3.15625 -72.87109375 3.15625 C-72.54109375 12.06625 -72.21109375 20.97625 -71.87109375 30.15625 C-70.17984375 28.67125 -68.48859375 27.18625 -66.74609375 25.65625 C-48.20742909 9.96830844 -24.16967905 0.97556727 0 0 Z M-53.63671875 59.80078125 C-66.598158 73.46467612 -74.75837901 91.34125527 -75.87109375 110.15625 C-75.92394531 110.87554688 -75.97679687 111.59484375 -76.03125 112.3359375 C-76.84269433 133.29236944 -68.85375501 152.4109394 -55.33984375 168.09375 C-45.35948908 178.66118436 -33.75179438 185.84344746 -19.87109375 190.15625 C-19.08992188 190.40117188 -18.30875 190.64609375 -17.50390625 190.8984375 C0.84109288 195.53229541 20.70881802 191.71686309 36.90234375 182.59375 C55.28072175 171.47405911 67.61705445 155.106019 73.62890625 134.59375 C78.92056711 112.62893851 74.42385251 91.32210555 63.12890625 72.15625 C61.01971885 68.90398825 58.7415688 66.0162016 56.12890625 63.15625 C55.37867188 62.32609375 54.6284375 61.4959375 53.85546875 60.640625 C39.65607903 45.67975381 21.45264319 38.14161034 0.98828125 37.16015625 C-20.21984214 37.13869054 -38.4287452 45.36314623 -53.63671875 59.80078125 Z " fill="#FFFFFF" transform="translate(1593.87109375,1007.84375)"/>
<path d="M0 0 C1.635391 1.6212928 3.20108502 3.28100981 4.75 4.984375 C5.575 5.78875 6.4 6.593125 7.25 7.421875 C8.075 8.2675 8.9 9.113125 9.75 9.984375 C10.23726562 10.46390625 10.72453125 10.9434375 11.2265625 11.4375 C32.15602894 33.45807607 39.29999111 63.47013313 38.9609375 92.94921875 C38.14980232 124.5484419 24.27000542 152.60415377 1.6796875 174.39453125 C-19.21772316 192.86784228 -44.45925704 202.39690387 -72.3125 202.359375 C-72.99497803 202.35883118 -73.67745605 202.35828735 -74.38061523 202.35772705 C-100.43394318 202.26244718 -127.38863525 193.84573975 -146.25 174.984375 C-146.58 219.864375 -146.91 264.744375 -147.25 310.984375 C-160.78 310.984375 -174.31 310.984375 -188.25 310.984375 C-188.25 200.434375 -188.25 89.884375 -188.25 -24.015625 C-175.71 -24.015625 -163.17 -24.015625 -150.25 -24.015625 C-149.92 -15.105625 -149.59 -6.195625 -149.25 2.984375 C-147.579375 1.52 -145.90875 0.055625 -144.1875 -1.453125 C-103.2676289 -36.03690587 -40.0885248 -35.9126368 0 0 Z M-131.26953125 32.875 C-146.69557891 48.60810643 -153.6586029 69.08785976 -153.46484375 90.875 C-152.65277894 111.9987728 -143.27785754 131.25046088 -128.25 145.984375 C-111.92732648 160.196033 -92.01022334 166.61621957 -70.54443359 165.203125 C-50.09446556 163.25343662 -31.83627672 152.60457022 -18.8125 136.921875 C-17.59765246 135.29612315 -16.40867141 133.65062953 -15.25 131.984375 C-14.70859375 131.20707031 -14.1671875 130.42976563 -13.609375 129.62890625 C-2.42646977 112.31799487 0.11588269 91.37943687 -3.3125 71.359375 C-6.40627038 57.90507125 -12.23158774 46.45736989 -21.25 35.984375 C-21.93707031 35.18515625 -22.62414063 34.3859375 -23.33203125 33.5625 C-37.25698684 18.57831773 -56.14239082 11.11006021 -76.28515625 10.0234375 C-97.60857889 9.81335452 -116.20029741 18.11446822 -131.26953125 32.875 Z " fill="#FFFFFF" transform="translate(1953.25,1035.015625)"/>
<path d="M0 0 C0.66 0 1.32 0 2 0 C11.13116191 21.29167761 19.87876754 42.73751063 28.62841797 64.18798828 C32.07872336 72.64556287 35.53738858 81.09971721 38.99630737 89.55377197 C40.12732291 92.31817761 41.25812882 95.08266893 42.38891602 97.84716797 C47.57754151 110.53077181 52.77633092 123.21018255 57.9800415 135.88760376 C63.71278352 149.85436595 69.4310873 163.82700249 75.14550781 177.80126953 C80.42205563 190.70425388 85.70647917 203.60396995 91 216.5 C96.29426971 229.39785448 101.57941672 242.29940505 106.85668945 255.20422363 C112.72741215 269.56010254 118.59896369 283.91564468 124.48193359 298.26651001 C125.15558251 299.90982162 125.82908734 301.55319231 126.50244141 303.19662476 C129.71615076 311.03879584 132.93755599 318.87719015 136.21875 326.69140625 C136.69505859 327.82674805 137.17136719 328.96208984 137.66210938 330.13183594 C138.52452789 332.1821258 139.39017042 334.231064 140.25976562 336.27832031 C140.81180664 337.58881348 140.81180664 337.58881348 141.375 338.92578125 C141.69210937 339.67255127 142.00921875 340.41932129 142.3359375 341.1887207 C143 343 143 343 143 345 C127.82 345 112.64 345 97 345 C91.37557794 332.62627148 91.37557794 332.62627148 89.60327148 328.08666992 C89.2019249 327.0631694 88.80057831 326.03966888 88.3870697 324.9851532 C87.96929764 323.91110733 87.55152557 322.83706146 87.12109375 321.73046875 C86.4419265 319.99607292 86.4419265 319.99607292 85.7490387 318.22663879 C84.30903626 314.54802239 82.87302458 310.86786585 81.4375 307.1875 C73.71549866 287.42105182 65.8817002 267.70425051 58 248 C19.72 248 -18.56 248 -58 248 C-70.87 280.01 -83.74 312.02 -97 345 C-111.52 345 -126.04 345 -141 345 C-139.18639571 338.95465236 -137.55053157 333.57809092 -135.12890625 327.87109375 C-134.71795715 326.89490082 -134.71795715 326.89490082 -134.29870605 325.89898682 C-133.70385135 324.48673381 -133.10683205 323.07539093 -132.50784302 321.66488647 C-130.82656417 317.70351192 -129.16407101 313.73425176 -127.5 309.765625 C-126.96222679 308.4844001 -126.96222679 308.4844001 -126.41358948 307.17729187 C-121.88857333 296.37797217 -117.47834106 285.53179776 -113.0625 274.6875 C-111.3478388 270.47909228 -109.63288404 266.27080419 -107.91796875 262.0625 C-107.49911911 261.03445251 -107.08026947 260.00640503 -106.64872742 258.94720459 C-102.73938183 249.35437375 -98.81026521 239.7697214 -94.875 230.1875 C-89.23928301 216.46270443 -83.6155628 202.73305431 -78 189 C-72.01640202 174.36731939 -66.02360406 159.73846114 -60.02050781 145.11376953 C-54.67064651 132.07980397 -49.33281996 119.04094654 -44 106 C-37.65209365 90.47719202 -31.29781779 74.95702522 -24.92700195 59.44360352 C-21.83733188 51.91945992 -18.75082921 44.39407132 -15.67578125 36.86393738 C-14.20259822 33.25684889 -12.72772808 29.65045129 -11.25274658 26.0440979 C-10.55020546 24.32501967 -9.84848601 22.60560539 -9.14764404 20.88583374 C-8.17735683 18.50505433 -7.20421094 16.12546175 -6.23046875 13.74609375 C-5.80499504 12.69884125 -5.80499504 12.69884125 -5.3709259 11.63043213 C-3.74273003 7.66110111 -1.96714177 3.81256272 0 0 Z M-1 94 C-1.17950195 94.65033203 -1.35900391 95.30066406 -1.54394531 95.97070312 C-8.3443128 120.3436267 -17.27138915 143.722938 -26.6640625 167.1953125 C-26.91295856 167.81735062 -27.16185463 168.43938873 -27.418293 169.08027649 C-29.9499892 175.40538402 -32.48680576 181.72836834 -35.03964043 188.04497719 C-35.76986648 189.85254531 -36.49852185 191.66074771 -37.22714233 193.46896362 C-38.13260779 195.71552471 -39.04089041 197.96095288 -39.95230103 200.20510864 C-40.35443817 201.20396088 -40.75657532 202.20281311 -41.17089844 203.23193359 C-41.52553162 204.10804291 -41.88016479 204.98415222 -42.24554443 205.8868103 C-43.11207853 207.93995427 -43.11207853 207.93995427 -43 210 C-14.62 210 13.76 210 43 210 C40.53132243 202.56918848 40.53132243 202.56918848 37.79858398 195.26611328 C37.39063095 194.23277863 36.98267792 193.19944397 36.56236267 192.13479614 C36.12799393 191.04101654 35.69362518 189.94723694 35.24609375 188.8203125 C34.29881774 186.42057701 33.35155249 184.02083728 32.40429688 181.62109375 C30.9338447 177.90296464 29.461499 174.18558605 27.98901367 170.46826172 C10.49546375 126.27496937 10.49546375 126.27496937 3.375 104.3125 C3.03855469 103.28962891 2.70210937 102.26675781 2.35546875 101.21289062 C1.56579538 98.81002737 0.78044407 96.40587275 0 94 C-0.33 94 -0.66 94 -1 94 Z " fill="#FFFFFF" transform="translate(1299,889)"/>
<path d="M0 0 C2.4060892 2.16954273 3.66315494 4.07652167 4.89086914 7.06445312 C5.23365402 7.88808853 5.5764389 8.71172394 5.92961121 9.56031799 C6.29444107 10.45822556 6.65927094 11.35613312 7.03515625 12.28125 C7.6212542 13.69766029 7.6212542 13.69766029 8.2191925 15.14268494 C9.50706671 18.25904383 10.78462672 21.3795285 12.0625 24.5 C12.96026511 26.67620735 13.85887562 28.85206612 14.75830078 31.02758789 C16.6064849 35.49917424 18.4515291 39.97203609 20.29443359 44.44580078 C23.91728631 53.23209294 27.58250077 62.0005416 31.25558472 70.76593018 C32.37513456 73.43782114 33.49342369 76.11023722 34.61157227 78.78271484 C38.91272211 89.05673529 43.25290053 99.31344564 47.62002563 109.55957031 C52.06149065 119.9843441 56.45338868 130.42625564 60.6875 140.9375 C61.08582031 141.91992676 61.48414063 142.90235352 61.89453125 143.91455078 C64.2665102 149.86004871 66.27074644 155.83676295 68 162 C68.28327148 161.13894653 68.28327148 161.13894653 68.57226562 160.26049805 C77.28568229 134.15340801 89.27842317 109.50271004 101.28076172 84.78076172 C105.06758528 76.97693742 108.74321681 69.12705446 112.375 61.25 C117.18662208 50.82272307 122.11557525 40.45840541 127.125 30.125 C127.44909851 29.45633911 127.77319702 28.78767822 128.1071167 28.09875488 C131.04084992 22.05014065 133.99350611 16.01298778 137 10 C151.52 10 166.04 10 181 10 C172.96469908 28.3664021 172.96469908 28.3664021 169.328125 35.72265625 C168.92391327 36.54771164 168.51970154 37.37276703 168.10324097 38.2228241 C167.25486126 39.9537416 166.40503349 41.68395009 165.55377197 43.41345215 C163.32327264 47.9454559 161.10392944 52.48292402 158.8828125 57.01953125 C158.23474136 58.34203384 158.23474136 58.34203384 157.57357788 59.69125366 C154.38852403 66.19416485 151.23712862 72.71181845 148.125 79.25 C144.13138186 87.63823964 140.10533978 96.0103912 136.0625 104.375 C129.68518235 117.57225243 123.33689489 130.78329017 117 144 C110.68324633 157.17470177 104.35547597 170.34393437 98 183.5 C93.57411763 192.66224658 89.15476402 201.82757541 84.75 211 C84.02224365 212.51303711 84.02224365 212.51303711 83.27978516 214.05664062 C80.8624943 219.08905271 78.46555274 224.1298093 76.1015625 229.1875 C75.64168945 230.1671875 75.18181641 231.146875 74.70800781 232.15625 C73.84003639 234.00792236 72.97713754 235.86198372 72.12011719 237.71875 C71.73758789 238.5334375 71.35505859 239.348125 70.9609375 240.1875 C70.62884277 240.90292969 70.29674805 241.61835937 69.95458984 242.35546875 C69 244 69 244 67 245 C57.29096984 223.90969947 47.60506659 202.80940722 38.02200317 181.66152954 C35.83238103 176.83080039 33.63551967 172.00340753 31.43605042 167.17715454 C8.19942598 116.1755998 8.19942598 116.1755998 1.05859375 94.97265625 C0.29280969 92.14983837 0.29280969 92.14983837 -1 91 C-1.33128906 92.06089844 -1.66257812 93.12179687 -2.00390625 94.21484375 C-7.09635761 109.87184518 -14.0218481 124.64650242 -20.93994141 139.55322266 C-24.02393626 146.20187053 -27.06756344 152.86899657 -30.11306763 159.53533936 C-31.12735426 161.7551524 -32.142594 163.97452768 -33.15795898 166.19384766 C-37.30424671 175.26070829 -41.42166584 184.33982417 -45.5 193.4375 C-46.26364868 195.1400293 -46.26364868 195.1400293 -47.04272461 196.87695312 C-49.77691304 202.98711835 -52.48977268 209.10598374 -55.18026733 215.23548889 C-56.65118755 218.58533107 -58.12660097 221.93318729 -59.60205078 225.28103638 C-60.67187767 227.71446543 -61.73441869 230.15099239 -62.796875 232.58764648 C-63.45146007 234.07421582 -64.10639055 235.56063311 -64.76171875 237.046875 C-65.06007126 237.73703201 -65.35842377 238.42718903 -65.66581726 239.13825989 C-67.77248383 243.88624191 -67.77248383 243.88624191 -70 245 C-92.33478028 199.41394561 -92.33478028 199.41394561 -100.4375 182.375 C-103.59563612 175.73585123 -106.79993306 169.11900033 -110 162.5 C-114.18495154 153.84202282 -118.35745497 145.17837452 -122.5 136.5 C-126.9200284 127.24093662 -131.37429262 117.9986183 -135.83837891 108.76074219 C-140.3936701 99.3337858 -144.93204401 89.89885029 -149.45849609 80.45800781 C-153.01484941 73.04393527 -156.58684756 65.63750391 -160.16464233 58.23376465 C-161.05547157 56.3895504 -161.94549896 54.54495163 -162.83520508 52.70019531 C-163.12504776 52.09925049 -163.41489044 51.49830566 -163.71351624 50.87915039 C-164.00141525 50.28223389 -164.28931427 49.68531738 -164.5859375 49.0703125 C-166.79130084 44.49858306 -169.00542144 39.93126973 -171.2265625 35.3671875 C-172.21369644 33.32819992 -173.2006839 31.28914142 -174.1875 29.25 C-174.63295166 28.34040527 -175.07840332 27.43081055 -175.53735352 26.49365234 C-175.95170654 25.63465332 -176.36605957 24.7756543 -176.79296875 23.890625 C-177.1489917 23.15875977 -177.50501465 22.42689453 -177.87182617 21.67285156 C-179.47671742 17.87056863 -180.69489344 13.91531969 -182 10 C-166.49 10 -150.98 10 -135 10 C-132.1846875 16.06375 -132.1846875 16.06375 -129.3125 22.25 C-128.67602539 23.62075684 -128.03955078 24.99151367 -127.38378906 26.40380859 C-124.49974675 32.61514086 -121.61622889 38.82671446 -118.734375 45.0390625 C-117.67712618 47.31772821 -116.61983454 49.59637406 -115.5625 51.875 C-115.0277002 53.02766357 -114.49290039 54.18032715 -113.94189453 55.36791992 C-110.89772862 61.92517859 -107.84341039 68.47755719 -104.77804565 75.02493286 C-102.13828424 80.66442743 -99.5085602 86.30855843 -96.8828125 91.95458984 C-95.58113855 94.75320598 -94.27592583 97.55014107 -92.96875 100.34619141 C-73.27044114 142.51533882 -73.27044114 142.51533882 -68 162 C-67.79656982 161.44280273 -67.59313965 160.88560547 -67.38354492 160.31152344 C-61.74739187 145.00751661 -55.50424735 130.01499703 -49 115.0625 C-42.54787392 100.22717173 -36.16716257 85.3677559 -29.9375 70.4375 C-29.5737326 69.56623474 -29.20996521 68.69496948 -28.83517456 67.79730225 C-26.60967692 62.46595267 -24.38753534 57.13320944 -22.16638184 51.80004883 C-18.86946788 43.88538507 -15.56791792 35.97266207 -12.26248169 28.06155396 C-11.08914867 25.25132574 -9.91839527 22.44003273 -8.74780273 19.62866211 C-8.03120947 17.91254661 -7.3145002 16.19647955 -6.59765625 14.48046875 C-6.27660919 13.70749451 -5.95556213 12.93452026 -5.62478638 12.13812256 C-3.89602584 8.00784253 -2.05572395 3.98195657 0 0 Z " fill="#FFFFFF" transform="translate(778,1001)"/>
<path d="M0 0 C0.65719025 0.00054382 1.31438049 0.00108765 1.9914856 0.00164795 C29.33073988 0.10528267 53.15207854 9.11050656 74.5 26.375 C75.30308594 27.02339844 76.10617187 27.67179687 76.93359375 28.33984375 C98.10708718 46.28410421 110.58196506 72.96616542 113.125 100.3125 C113.51283332 106.15368777 113.54398291 111.96596957 113.5234375 117.81640625 C113.52174561 118.73844849 113.52005371 119.66049072 113.51831055 120.61047363 C113.51392794 122.8653255 113.50778392 125.12015774 113.5 127.375 C91.88913305 127.42186371 70.27827456 127.45705894 48.66736698 127.47862434 C38.63149879 127.48890674 28.59566229 127.50290854 18.55981445 127.52587891 C9.80555636 127.54590626 1.05132125 127.55873846 -7.70295912 127.56317699 C-12.33189304 127.56576865 -16.96076127 127.57179577 -21.589674 127.58646011 C-25.96038239 127.60019225 -30.330999 127.60419161 -34.70172691 127.60121536 C-36.29263561 127.60175863 -37.88354789 127.60564187 -39.47443771 127.61341095 C-50.29287427 127.66358152 -60.78247875 126.85578867 -71.5 125.375 C-66.90448321 141.31622493 -61.67269412 154.74108834 -50.5 167.375 C-49.99339844 167.97570313 -49.48679687 168.57640625 -48.96484375 169.1953125 C-36.64560655 182.74332272 -17.38459746 191.43225278 0.73779297 192.5078125 C25.60567224 193.66963672 47.7767407 187.22593337 66.5 170.375 C72.14976735 164.87134992 72.14976735 164.87134992 76.5 158.375 C77.16 158.375 77.82 158.375 78.5 158.375 C80.09810945 164.56469299 81.68148267 170.7580198 83.25463867 176.95410156 C83.79160938 179.06173998 84.33195505 181.16852152 84.87573242 183.27441406 C85.65650871 186.30054608 86.42511859 189.32954628 87.19140625 192.359375 C87.43717911 193.30117615 87.68295197 194.24297729 87.93617249 195.21331787 C88.15647629 196.09392883 88.37678009 196.97453979 88.60375977 197.88183594 C88.8013942 198.65460876 88.99902863 199.42738159 89.20265198 200.22357178 C89.53725937 202.64458599 89.3903957 204.10250005 88.5 206.375 C86.35885492 208.14324903 84.32258657 209.63336645 82 211.125 C81.32855957 211.56038086 80.65711914 211.99576172 79.96533203 212.44433594 C48.56420791 232.30487598 11.22827673 236.90584846 -24.75683594 228.87109375 C-53.16132405 222.07515951 -79.68768679 203.57223813 -95.2578125 178.82446289 C-112.64268251 150.35597306 -117.69789878 117.94985729 -110.5 85.375 C-106.0859497 67.82977656 -97.93744825 53.24677001 -86.5 39.375 C-85.943125 38.67632813 -85.38625 37.97765625 -84.8125 37.2578125 C-64.33428283 12.21651433 -31.59181111 -0.04429982 0 0 Z M-55.5 62.375 C-62.80709416 71.080163 -68.87339287 81.47730734 -71.57446289 92.57299805 C-71.87989014 93.82765869 -72.18531738 95.08231934 -72.5 96.375 C-71.22133057 96.23280029 -69.94266113 96.09060059 -68.62524414 95.9440918 C-45.28512119 93.63785099 -21.8474588 94.11059263 1.57769775 94.17938232 C6.2362839 94.19023427 10.89484063 94.1898495 15.55343723 94.18924427 C20.09460759 94.18951806 24.63575957 94.19503111 29.17692375 94.20224571 C31.32038167 94.20538789 33.46384162 94.20738914 35.60730171 94.20813942 C47.94246756 94.21720064 60.19570743 94.47444341 72.5 95.375 C69.10049743 76.83225873 58.87408611 61.53458888 43.703125 50.3046875 C41.01705143 48.55191068 38.30279159 46.93346636 35.5 45.375 C34.66597656 44.90320312 33.83195312 44.43140625 32.97265625 43.9453125 C2.64393635 27.75083015 -33.06141123 37.93352465 -55.5 62.375 Z " fill="#FFFFFF" transform="translate(461.5,1006.625)"/>
<path d="M0 0 C8.54162092 6.76904071 8.54162092 6.76904071 10.07421875 10.82421875 C9.89712524 12.93768311 9.89712524 12.93768311 9.29150391 15.22558594 C9.07112457 16.08617615 8.85074524 16.94676636 8.62368774 17.83343506 C8.3727536 18.75336243 8.12181946 19.67328979 7.86328125 20.62109375 C7.61629486 21.56986389 7.36930847 22.51863403 7.11483765 23.49615479 C6.32287833 26.52583967 5.51134003 29.54988293 4.69921875 32.57421875 C4.15885877 34.62726311 3.6197803 36.68064522 3.08203125 38.734375 C1.76093932 43.76833663 0.42373522 48.7978073 -0.92578125 53.82421875 C-1.58578125 53.82421875 -2.24578125 53.82421875 -2.92578125 53.82421875 C-4.39773586 51.8306346 -5.76328114 49.83534597 -7.11328125 47.76171875 C-16.61607177 33.73298134 -29.6608961 24.39044004 -46.22265625 20.25 C-57.48072455 18.47669155 -68.59035257 18.76750963 -78.1640625 25.3671875 C-84.39881298 30.34814904 -87.64320009 35.76690038 -88.92578125 43.63671875 C-89.33018545 50.56480119 -87.46729116 56.65962899 -83.109375 62.0859375 C-74.04347532 70.85131012 -61.20396839 74.59925289 -49.60845947 78.94842529 C-34.69723678 84.55957737 -19.80823162 90.22498468 -6.92578125 99.82421875 C-5.91515625 100.56671875 -4.90453125 101.30921875 -3.86328125 102.07421875 C8.20216417 112.56445324 13.98763692 126.2183245 15.24267578 141.93359375 C16.27086276 160.79372636 11.73869217 178.94836356 -1.05078125 193.26171875 C-15.37449593 208.33308603 -35.72139009 215.61840426 -56.24243164 216.17797852 C-81.52152758 216.38785363 -105.54065263 209.36063671 -124.92578125 192.82421875 C-126.53453125 191.67953125 -126.53453125 191.67953125 -128.17578125 190.51171875 C-130.64927063 186.71314578 -129.59503969 184.59966653 -128.72265625 180.28979492 C-127.09076704 173.19277673 -125.19724756 166.16674855 -123.30078125 159.13671875 C-122.87590197 157.54893514 -122.45141984 155.9610452 -122.02734375 154.37304688 C-120.99805943 150.5221976 -119.9634279 146.67282274 -118.92578125 142.82421875 C-115.88857109 145.82666828 -113.0917452 148.76581868 -110.55078125 152.19921875 C-99.60405124 166.34360763 -83.63643804 176.8671229 -65.703125 179.54296875 C-54.28390318 180.69934564 -42.41245981 180.07437975 -32.67578125 173.33984375 C-26.79257541 168.24456726 -23.37515643 162.2813935 -22.58984375 154.4921875 C-22.4970125 146.22092323 -22.9592681 139.84683137 -28.1875 133.2265625 C-38.02905723 123.53999042 -53.77306377 119.27601693 -66.34741211 114.61135864 C-76.23027353 110.93840512 -85.73293572 107.0028181 -94.92578125 101.82421875 C-95.94285156 101.25316406 -96.95992187 100.68210937 -98.0078125 100.09375 C-110.37005591 92.70346222 -120.15437453 81.94331542 -124.41796875 67.9921875 C-128.73938135 49.54307985 -126.68901416 29.92125362 -117.05029297 13.546875 C-107.57687307 -0.96559804 -92.53487702 -10.8827688 -75.82958984 -15.04150391 C-50.7371874 -20.26933005 -20.7776158 -15.45144459 0 0 Z " fill="#FFFFFF" transform="translate(1114.92578125,1023.17578125)"/>
<path d="M0 0 C1.39836594 -0.01062721 1.39836594 -0.01062721 2.82498169 -0.02146912 C3.84067734 -0.0189917 4.85637299 -0.01651428 5.90284729 -0.01396179 C6.97804626 -0.01907272 8.05324524 -0.02418365 9.161026 -0.02944946 C12.71898447 -0.04336166 16.2767496 -0.04238748 19.83473206 -0.04008484 C22.30568514 -0.04397078 24.77663756 -0.04830524 27.24758911 -0.05307007 C32.42843287 -0.06053573 37.60920848 -0.0602384 42.79005432 -0.05497742 C49.43261832 -0.04918147 56.07490362 -0.06611543 62.71742153 -0.08932209 C67.82089878 -0.10404601 72.9243087 -0.10493296 78.02780342 -0.10181236 C80.47704178 -0.10232622 82.92628384 -0.10757595 85.37550163 -0.11762428 C88.79886421 -0.12994543 92.2216811 -0.12322258 95.64503479 -0.11161804 C96.65870621 -0.11926178 97.67237762 -0.12690552 98.71676636 -0.13478088 C107.44470111 -0.06930892 107.44470111 -0.06930892 111.33863831 3.26069641 C113.96120758 6.22606919 114.7141661 8.05140411 114.71958923 11.99798584 C114.72804871 12.94705811 114.73650818 13.89613037 114.745224 14.8739624 C114.73915131 15.90835953 114.73307861 16.94275665 114.7268219 18.00849915 C114.73207886 19.10320526 114.73733582 20.19791138 114.74275208 21.32579041 C114.75596855 24.9487683 114.74720721 28.5713077 114.73707581 32.19429016 C114.7390962 34.71008387 114.74200735 37.225877 114.74577332 39.7416687 C114.75019903 45.01669292 114.7440439 50.29160293 114.72975159 55.56660461 C114.71343366 61.65945882 114.71870767 67.75201171 114.7352308 73.84485859 C114.75050271 79.71177318 114.74886359 85.57857355 114.7400856 91.44549751 C114.73808333 93.93938807 114.7405438 96.4332863 114.74752426 98.92716789 C114.75513853 102.41281908 114.74353361 105.89789111 114.7268219 109.38349915 C114.73289459 110.41587204 114.73896729 111.44824493 114.745224 112.51190186 C114.66524813 121.51109081 114.66524813 121.51109081 111.33863831 125.26069641 C108.33993581 127.08936657 106.09056252 127.5139141 102.60134888 127.52812195 C101.65227661 127.53665192 100.70320435 127.54518188 99.72537231 127.55397034 C98.17377663 127.55261078 98.17377663 127.55261078 96.59083557 127.55122375 C94.9487764 127.56129959 94.9487764 127.56129959 93.27354431 127.57157898 C89.65066504 127.59059497 86.02797064 127.59448486 82.40504456 127.59663391 C79.88925093 127.60305873 77.37345806 127.60978684 74.85766602 127.61680603 C69.58267516 127.62878738 64.3077313 127.6325715 59.0327301 127.63130188 C52.93983091 127.6301001 46.84728573 127.65121092 40.75447613 127.68278921 C34.88757179 127.71211061 29.02080745 127.71927756 23.1538372 127.71808243 C20.65993236 127.72044507 18.16602498 127.72930568 15.67216682 127.74474716 C12.1864228 127.76431107 8.70159388 127.75860634 5.21583557 127.74653625 C4.18346268 127.75777527 3.15108978 127.76901428 2.08743286 127.78059387 C-2.24902931 127.74237685 -4.916885 127.69458062 -8.71618652 125.48033142 C-11.804517 121.95624446 -12.9093416 119.28848815 -12.92878723 114.60606384 C-12.9373172 113.67526505 -12.94584717 112.74446625 -12.95463562 111.78546143 C-12.95372925 110.77133682 -12.95282288 109.75721222 -12.95188904 108.71235657 C-12.95860626 107.63876389 -12.96532349 106.5651712 -12.97224426 105.45904541 C-12.99126019 101.90590298 -12.99515027 98.35294908 -12.99729919 94.79975891 C-13.0037245 92.33120139 -13.01045265 89.86264465 -13.01747131 87.39408875 C-13.029453 82.21744521 -13.0331512 77.04086846 -13.03196716 71.86421204 C-13.0317639 65.23064637 -13.0590702 58.59750876 -13.09351158 51.96404457 C-13.11574759 46.86481255 -13.11980571 41.76568409 -13.11874771 36.66640854 C-13.12110848 34.22077839 -13.12995863 31.7751456 -13.14541245 29.32956314 C-13.16500529 25.90867878 -13.15925997 22.48872462 -13.14720154 19.06782532 C-13.15844055 18.05774918 -13.16967957 17.04767303 -13.18125916 16.00698853 C-13.13001162 10.28636737 -12.67341451 6.68833508 -8.66136169 2.26069641 C-5.69151686 0.43318485 -3.46351586 0.00879565 0 0 Z M9.33863831 22.26069641 C9.33863831 49.65069641 9.33863831 77.04069641 9.33863831 105.26069641 C36.72863831 105.26069641 64.11863831 105.26069641 92.33863831 105.26069641 C92.33863831 77.87069641 92.33863831 50.48069641 92.33863831 22.26069641 C64.94863831 22.26069641 37.55863831 22.26069641 9.33863831 22.26069641 Z " fill="#FFFFFF" transform="translate(922.6613616943359,64.73930358886719)"/>
<path d="M0 0 C1.01444872 -0.00644889 2.02889744 -0.01289778 3.07408702 -0.0195421 C4.18671795 -0.01644489 5.29934887 -0.01334769 6.44569588 -0.01015663 C8.22081761 -0.0169533 8.22081761 -0.0169533 10.03180039 -0.02388728 C13.31770815 -0.03436967 16.6033973 -0.03585507 19.88930631 -0.03349853 C23.43268548 -0.03309074 26.97603188 -0.0441258 30.51939583 -0.05361366 C37.46183987 -0.07023276 44.40424995 -0.07572361 51.34671222 -0.07683842 C56.98921003 -0.07778843 62.63169663 -0.08189638 68.2741909 -0.08823967 C84.26805326 -0.10585431 100.26188877 -0.11507816 116.25576089 -0.11357872 C117.54934704 -0.11345885 117.54934704 -0.11345885 118.86906624 -0.11333656 C119.73250865 -0.1132548 120.59595107 -0.11317304 121.48555841 -0.1130888 C135.48132673 -0.11227576 149.47698746 -0.13141728 163.47272466 -0.1596133 C177.83986561 -0.18832942 192.20695407 -0.2021543 206.57412446 -0.20042574 C214.64166056 -0.19976142 222.70908388 -0.20527238 230.77659416 -0.22678185 C237.64505122 -0.24497691 244.51334436 -0.24935482 251.38181506 -0.235763 C254.8864121 -0.22922487 258.3906945 -0.22914612 261.89526176 -0.2464695 C265.69425761 -0.26183805 269.49242187 -0.25266808 273.291399 -0.23720741 C274.95365322 -0.2526381 274.95365322 -0.2526381 276.64948833 -0.26838052 C282.73690488 -0.21347071 286.37743466 0.15315685 290.99553108 4.25726891 C292.9833067 7.10904927 293.28118097 9.26101917 292.99553108 12.69476891 C292.95428108 13.43597984 292.91303108 14.17719078 292.87053108 14.94086266 C291.52215336 18.5104519 289.29362597 20.50857069 285.99553108 22.25726891 C282.07474677 22.9949906 278.20903549 22.93201581 274.22892952 22.89218712 C272.43899385 22.90388705 272.43899385 22.90388705 270.61289787 22.91582334 C267.30827469 22.93230217 264.00507493 22.92639305 260.70053864 22.91089225 C257.13398433 22.89957345 253.5675539 22.917044 250.00102425 22.93079185 C243.01733089 22.95302332 236.03390625 22.9482236 229.05020237 22.93372865 C223.3743634 22.922436 217.69859974 22.92090561 212.02275276 22.92634773 C211.21489256 22.9271139 210.40703235 22.92788006 209.57469153 22.92866945 C207.9335311 22.93026807 206.29237069 22.93188914 204.65121031 22.9335324 C189.26256076 22.94778963 173.87406014 22.93139763 158.48543501 22.90453057 C145.28169453 22.88219178 132.07817384 22.88607192 118.87443733 22.90912437 C103.54080906 22.93588289 88.20731131 22.94641633 72.87366295 22.93106306 C71.23854512 22.92947031 69.60342727 22.92789846 67.9683094 22.92634773 C67.1638034 22.92557635 66.3592974 22.92480498 65.53041244 22.92401022 C59.86148619 22.91969337 54.19264275 22.92697945 48.52372932 22.9387455 C41.61500774 22.95276963 34.70657018 22.94897261 27.79788113 22.92234178 C24.27297331 22.90920212 20.74853902 22.90405304 17.22363472 22.92058754 C13.40286633 22.9382388 9.58287308 22.91716142 5.76213264 22.89218712 C4.09025194 22.90891753 4.09025194 22.90891753 2.38459587 22.92598593 C-5.97940074 22.81963114 -5.97940074 22.81963114 -9.68079948 19.85796738 C-12.63472754 16.55187053 -13.03564585 14.76093588 -13.24275017 10.47601891 C-12.85893083 6.9020946 -11.37206617 4.88082262 -9.00446892 2.25726891 C-5.93393445 0.33947228 -3.59175281 0.00577534 0 0 Z " fill="#FFFFFF" transform="translate(923.0044689178467,295.74273109436035)"/>
<path d="M0 0 C1.01444872 -0.00644889 2.02889744 -0.01289778 3.07408702 -0.0195421 C4.18671795 -0.01644489 5.29934887 -0.01334769 6.44569588 -0.01015663 C8.22081761 -0.0169533 8.22081761 -0.0169533 10.03180039 -0.02388728 C13.31770815 -0.03436967 16.6033973 -0.03585507 19.88930631 -0.03349853 C23.43268548 -0.03309074 26.97603188 -0.0441258 30.51939583 -0.05361366 C37.46183987 -0.07023276 44.40424995 -0.07572361 51.34671222 -0.07683842 C56.98921003 -0.07778843 62.63169663 -0.08189638 68.2741909 -0.08823967 C84.26805326 -0.10585431 100.26188877 -0.11507816 116.25576089 -0.11357872 C117.54934704 -0.11345885 117.54934704 -0.11345885 118.86906624 -0.11333656 C119.73250865 -0.1132548 120.59595107 -0.11317304 121.48555841 -0.1130888 C135.48132673 -0.11227576 149.47698746 -0.13141728 163.47272466 -0.1596133 C177.83986561 -0.18832942 192.20695407 -0.2021543 206.57412446 -0.20042574 C214.64166056 -0.19976142 222.70908388 -0.20527238 230.77659416 -0.22678185 C237.64505122 -0.24497691 244.51334436 -0.24935482 251.38181506 -0.235763 C254.8864121 -0.22922487 258.3906945 -0.22914612 261.89526176 -0.2464695 C265.69425761 -0.26183805 269.49242187 -0.25266808 273.291399 -0.23720741 C274.95365322 -0.2526381 274.95365322 -0.2526381 276.64948833 -0.26838052 C282.73690488 -0.21347071 286.37743466 0.15315685 290.99553108 4.25726891 C292.9833067 7.10904927 293.28118097 9.26101917 292.99553108 12.69476891 C292.95428108 13.43597984 292.91303108 14.17719078 292.87053108 14.94086266 C291.52215336 18.5104519 289.29362597 20.50857069 285.99553108 22.25726891 C282.07474677 22.9949906 278.20903549 22.93201581 274.22892952 22.89218712 C272.43899385 22.90388705 272.43899385 22.90388705 270.61289787 22.91582334 C267.30827469 22.93230217 264.00507493 22.92639305 260.70053864 22.91089225 C257.13398433 22.89957345 253.5675539 22.917044 250.00102425 22.93079185 C243.01733089 22.95302332 236.03390625 22.9482236 229.05020237 22.93372865 C223.3743634 22.922436 217.69859974 22.92090561 212.02275276 22.92634773 C211.21489256 22.9271139 210.40703235 22.92788006 209.57469153 22.92866945 C207.9335311 22.93026807 206.29237069 22.93188914 204.65121031 22.9335324 C189.26256076 22.94778963 173.87406014 22.93139763 158.48543501 22.90453057 C145.28169453 22.88219178 132.07817384 22.88607192 118.87443733 22.90912437 C103.54080906 22.93588289 88.20731131 22.94641633 72.87366295 22.93106306 C71.23854512 22.92947031 69.60342727 22.92789846 67.9683094 22.92634773 C67.1638034 22.92557635 66.3592974 22.92480498 65.53041244 22.92401022 C59.86148619 22.91969337 54.19264275 22.92697945 48.52372932 22.9387455 C41.61500774 22.95276963 34.70657018 22.94897261 27.79788113 22.92234178 C24.27297331 22.90920212 20.74853902 22.90405304 17.22363472 22.92058754 C13.40286633 22.9382388 9.58287308 22.91716142 5.76213264 22.89218712 C4.09025194 22.90891753 4.09025194 22.90891753 2.38459587 22.92598593 C-5.97940074 22.81963114 -5.97940074 22.81963114 -9.68079948 19.85796738 C-12.63472754 16.55187053 -13.03564585 14.76093588 -13.24275017 10.47601891 C-12.85893083 6.9020946 -11.37206617 4.88082262 -9.00446892 2.25726891 C-5.93393445 0.33947228 -3.59175281 0.00577534 0 0 Z " fill="#FFFFFF" transform="translate(923.0044689178467,253.74273109436035)"/>
<path d="M0 0 C1.01444872 -0.00644889 2.02889744 -0.01289778 3.07408702 -0.0195421 C4.18671795 -0.01644489 5.29934887 -0.01334769 6.44569588 -0.01015663 C8.22081761 -0.0169533 8.22081761 -0.0169533 10.03180039 -0.02388728 C13.31770815 -0.03436967 16.6033973 -0.03585507 19.88930631 -0.03349853 C23.43268548 -0.03309074 26.97603188 -0.0441258 30.51939583 -0.05361366 C37.46183987 -0.07023276 44.40424995 -0.07572361 51.34671222 -0.07683842 C56.98921003 -0.07778843 62.63169663 -0.08189638 68.2741909 -0.08823967 C84.26805326 -0.10585431 100.26188877 -0.11507816 116.25576089 -0.11357872 C117.54934704 -0.11345885 117.54934704 -0.11345885 118.86906624 -0.11333656 C119.73250865 -0.1132548 120.59595107 -0.11317304 121.48555841 -0.1130888 C135.48132673 -0.11227576 149.47698746 -0.13141728 163.47272466 -0.1596133 C177.83986561 -0.18832942 192.20695407 -0.2021543 206.57412446 -0.20042574 C214.64166056 -0.19976142 222.70908388 -0.20527238 230.77659416 -0.22678185 C237.64505122 -0.24497691 244.51334436 -0.24935482 251.38181506 -0.235763 C254.8864121 -0.22922487 258.3906945 -0.22914612 261.89526176 -0.2464695 C265.69425761 -0.26183805 269.49242187 -0.25266808 273.291399 -0.23720741 C274.95365322 -0.2526381 274.95365322 -0.2526381 276.64948833 -0.26838052 C282.73690488 -0.21347071 286.37743466 0.15315685 290.99553108 4.25726891 C292.9833067 7.10904927 293.28118097 9.26101917 292.99553108 12.69476891 C292.95428108 13.43597984 292.91303108 14.17719078 292.87053108 14.94086266 C291.52204948 18.5107269 289.29436697 20.50920225 285.99553108 22.25726891 C282.07222488 22.99324105 278.20442283 22.92771909 274.22220039 22.88545799 C272.43120638 22.89609957 272.43120638 22.89609957 270.60403067 22.90695614 C267.29746685 22.92150019 263.99233796 22.91365385 260.68587959 22.8962332 C257.1173094 22.88285511 253.54884729 22.89829775 249.98028755 22.91005516 C242.99290912 22.92843238 236.00581037 22.91991928 229.01844066 22.90196694 C223.34021177 22.88794125 217.66205879 22.88404806 211.98381424 22.88740921 C210.77159085 22.88812537 210.77159085 22.88812537 209.53487809 22.888856 C207.89315194 22.88988233 206.2514258 22.89093769 204.60969967 22.89202177 C190.09364155 22.90058885 175.57771846 22.883913 161.06169319 22.85419273 C146.9740704 22.82534995 132.88664211 22.81827428 118.79899788 22.83368492 C103.45916009 22.85044236 88.11941464 22.85448639 72.77957445 22.83697456 C71.1441937 22.83513016 69.50881294 22.83329544 67.87343216 22.83147049 C67.06878545 22.8305584 66.26413874 22.82964631 65.43510879 22.82870658 C59.76272312 22.82309874 54.0903825 22.82641061 48.41799927 22.83301544 C41.50671604 22.84074334 34.59562435 22.83401564 27.68437975 22.8088404 C24.15763392 22.79633316 20.63118646 22.79021341 17.10442924 22.80138206 C13.28339417 22.81325429 9.46287523 22.79418859 5.64187813 22.7719326 C3.96562816 22.78429375 3.96562816 22.78429375 2.25551456 22.79690462 C-5.25109276 22.71587069 -5.25109276 22.71587069 -9.15033436 20.34228992 C-11.85132574 17.30495708 -12.85118416 15.43245202 -13.37946892 11.38226891 C-12.89988436 7.38573095 -11.53707458 5.35267583 -9.00446892 2.25726891 C-5.94626783 0.3234866 -3.58628411 0.00576655 0 0 Z " fill="#FFFFFF" transform="translate(923.0044689178467,211.74273109436035)"/>
<path d="M0 0 C1.17695623 -0.00467997 2.35391247 -0.00935994 3.56653404 -0.01418173 C6.82516234 -0.02406697 10.08345456 -0.02052334 13.34207439 -0.01122308 C16.85951704 -0.00443128 20.37691449 -0.01491445 23.89434814 -0.02316284 C30.78173298 -0.03650099 37.66901973 -0.03362209 44.55640841 -0.02492492 C50.15404852 -0.0181491 55.75166116 -0.01723121 61.3493042 -0.02049637 C62.14606296 -0.02095607 62.94282172 -0.02141577 63.76372468 -0.0218894 C65.3823371 -0.02284857 67.00094951 -0.02382121 68.61956191 -0.02480717 C83.79643428 -0.0333613 98.97325228 -0.02352657 114.15011573 -0.00740607 C127.17188172 0.00599714 140.19356748 0.00366905 153.21533203 -0.01016235 C168.33798608 -0.02621776 183.46059248 -0.03253733 198.58325386 -0.02332556 C200.19590377 -0.02236992 201.80855369 -0.02142681 203.42120361 -0.02049637 C204.21465317 -0.02003354 205.00810273 -0.01957072 205.82559621 -0.01909386 C211.41635556 -0.01650386 217.00708469 -0.02087521 222.59783936 -0.02793503 C229.41133966 -0.03634978 236.22473627 -0.03407044 243.0382247 -0.0180928 C246.51442515 -0.0102097 249.99045275 -0.00711901 253.46665192 -0.01704025 C257.23477736 -0.02521446 261.00241369 -0.0149832 264.77050781 0 C266.41904283 -0.01003825 266.41904283 -0.01003825 268.10088158 -0.02027929 C273.60346175 0.02228082 277.66534211 0.21025914 282.38525391 3.38095093 C285.18136937 6.44765821 285.62164433 8.85471875 285.44775391 12.88095093 C285.21387859 16.28713503 284.37919839 17.38774053 282.06378174 19.98384666 C277.46532205 23.65848081 272.25665792 23.07228833 266.61865234 23.01586914 C264.82871668 23.02756907 264.82871668 23.02756907 263.0026207 23.03950536 C259.69799752 23.05598419 256.39479775 23.05007508 253.09026146 23.03457427 C249.52370716 23.02325548 245.95727672 23.04072603 242.39074707 23.05447388 C235.40705372 23.07670534 228.42362907 23.07190562 221.43992519 23.05741067 C215.76408623 23.04611802 210.08832256 23.04458763 204.41247559 23.05002975 C203.60461538 23.05079592 202.79675518 23.05156209 201.96441436 23.05235147 C200.32325393 23.0539501 198.68209352 23.05557116 197.04093313 23.05721442 C181.65228358 23.07147165 166.26378296 23.05507965 150.87515783 23.02821259 C137.67141736 23.0058738 124.46789667 23.00975394 111.26416016 23.0328064 C95.93053188 23.05956491 80.59703413 23.07009836 65.26338577 23.05474508 C63.62826794 23.05315233 61.9931501 23.05158048 60.35803223 23.05002975 C59.55352623 23.04925838 58.74902023 23.048487 57.92013526 23.04769225 C52.25120901 23.04337539 46.58236557 23.05066147 40.91345215 23.06242752 C34.00473056 23.07645166 27.096293 23.07265463 20.18760395 23.0460238 C16.66269613 23.03288414 13.13826184 23.02773506 9.61335754 23.04426956 C5.79258915 23.06192082 1.97259591 23.04084344 -1.84814453 23.01586914 C-3.52002523 23.03259955 -3.52002523 23.03259955 -5.2256813 23.04966795 C-13.58936892 22.94331709 -13.58936892 22.94331709 -17.29327393 19.96797752 C-20.08909795 16.85233771 -20.58144773 15.39626369 -20.77880859 11.37313843 C-20.50656676 8.06734475 -19.54423008 6.05733194 -17.61474609 3.38095093 C-12.04481884 -0.44251033 -6.49625929 -0.03955698 0 0 Z " fill="#FFFFFF" transform="translate(930.61474609375,505.6190490722656)"/>
<path d="M0 0 C1.17695623 -0.00467997 2.35391247 -0.00935994 3.56653404 -0.01418173 C6.82516234 -0.02406697 10.08345456 -0.02052334 13.34207439 -0.01122308 C16.85951704 -0.00443128 20.37691449 -0.01491445 23.89434814 -0.02316284 C30.78173298 -0.03650099 37.66901973 -0.03362209 44.55640841 -0.02492492 C50.15404852 -0.0181491 55.75166116 -0.01723121 61.3493042 -0.02049637 C62.14606296 -0.02095607 62.94282172 -0.02141577 63.76372468 -0.0218894 C65.3823371 -0.02284857 67.00094951 -0.02382121 68.61956191 -0.02480717 C83.79643428 -0.0333613 98.97325228 -0.02352657 114.15011573 -0.00740607 C127.17188172 0.00599714 140.19356748 0.00366905 153.21533203 -0.01016235 C168.33798608 -0.02621776 183.46059248 -0.03253733 198.58325386 -0.02332556 C200.19590377 -0.02236992 201.80855369 -0.02142681 203.42120361 -0.02049637 C204.21465317 -0.02003354 205.00810273 -0.01957072 205.82559621 -0.01909386 C211.41635556 -0.01650386 217.00708469 -0.02087521 222.59783936 -0.02793503 C229.41133966 -0.03634978 236.22473627 -0.03407044 243.0382247 -0.0180928 C246.51442515 -0.0102097 249.99045275 -0.00711901 253.46665192 -0.01704025 C257.23477736 -0.02521446 261.00241369 -0.0149832 264.77050781 0 C266.41904283 -0.01003825 266.41904283 -0.01003825 268.10088158 -0.02027929 C273.60346175 0.02228082 277.66534211 0.21025914 282.38525391 3.38095093 C285.18136937 6.44765821 285.62164433 8.85471875 285.44775391 12.88095093 C285.21387859 16.28713503 284.37919839 17.38774053 282.06378174 19.98384666 C277.46532205 23.65848081 272.25665792 23.07228833 266.61865234 23.01586914 C264.82871668 23.02756907 264.82871668 23.02756907 263.0026207 23.03950536 C259.69799752 23.05598419 256.39479775 23.05007508 253.09026146 23.03457427 C249.52370716 23.02325548 245.95727672 23.04072603 242.39074707 23.05447388 C235.40705372 23.07670534 228.42362907 23.07190562 221.43992519 23.05741067 C215.76408623 23.04611802 210.08832256 23.04458763 204.41247559 23.05002975 C203.60461538 23.05079592 202.79675518 23.05156209 201.96441436 23.05235147 C200.32325393 23.0539501 198.68209352 23.05557116 197.04093313 23.05721442 C181.65228358 23.07147165 166.26378296 23.05507965 150.87515783 23.02821259 C137.67141736 23.0058738 124.46789667 23.00975394 111.26416016 23.0328064 C95.93053188 23.05956491 80.59703413 23.07009836 65.26338577 23.05474508 C63.62826794 23.05315233 61.9931501 23.05158048 60.35803223 23.05002975 C59.55352623 23.04925838 58.74902023 23.048487 57.92013526 23.04769225 C52.25120901 23.04337539 46.58236557 23.05066147 40.91345215 23.06242752 C34.00473056 23.07645166 27.096293 23.07265463 20.18760395 23.0460238 C16.66269613 23.03288414 13.13826184 23.02773506 9.61335754 23.04426956 C5.79258915 23.06192082 1.97259591 23.04084344 -1.84814453 23.01586914 C-3.52002523 23.03259955 -3.52002523 23.03259955 -5.2256813 23.04966795 C-13.58936892 22.94331709 -13.58936892 22.94331709 -17.29327393 19.96797752 C-20.08909795 16.85233771 -20.58144773 15.39626369 -20.77880859 11.37313843 C-20.50656676 8.06734475 -19.54423008 6.05733194 -17.61474609 3.38095093 C-12.04481884 -0.44251033 -6.49625929 -0.03955698 0 0 Z " fill="#FFFFFF" transform="translate(930.61474609375,463.6190490722656)"/>
<path d="M0 0 C1.17695623 -0.00467997 2.35391247 -0.00935994 3.56653404 -0.01418173 C6.82516234 -0.02406697 10.08345456 -0.02052334 13.34207439 -0.01122308 C16.85951704 -0.00443128 20.37691449 -0.01491445 23.89434814 -0.02316284 C30.78173298 -0.03650099 37.66901973 -0.03362209 44.55640841 -0.02492492 C50.15404852 -0.0181491 55.75166116 -0.01723121 61.3493042 -0.02049637 C62.14606296 -0.02095607 62.94282172 -0.02141577 63.76372468 -0.0218894 C65.3823371 -0.02284857 67.00094951 -0.02382121 68.61956191 -0.02480717 C83.79643428 -0.0333613 98.97325228 -0.02352657 114.15011573 -0.00740607 C127.17188172 0.00599714 140.19356748 0.00366905 153.21533203 -0.01016235 C168.33798608 -0.02621776 183.46059248 -0.03253733 198.58325386 -0.02332556 C200.19590377 -0.02236992 201.80855369 -0.02142681 203.42120361 -0.02049637 C204.21465317 -0.02003354 205.00810273 -0.01957072 205.82559621 -0.01909386 C211.41635556 -0.01650386 217.00708469 -0.02087521 222.59783936 -0.02793503 C229.41133966 -0.03634978 236.22473627 -0.03407044 243.0382247 -0.0180928 C246.51442515 -0.0102097 249.99045275 -0.00711901 253.46665192 -0.01704025 C257.23477736 -0.02521446 261.00241369 -0.0149832 264.77050781 0 C266.41904283 -0.01003825 266.41904283 -0.01003825 268.10088158 -0.02027929 C273.60346175 0.02228082 277.66534211 0.21025914 282.38525391 3.38095093 C285.18136937 6.44765821 285.62164433 8.85471875 285.44775391 12.88095093 C285.21387859 16.28713503 284.37919839 17.38774053 282.06378174 19.98384666 C277.46532205 23.65848081 272.25665792 23.07228833 266.61865234 23.01586914 C264.82871668 23.02756907 264.82871668 23.02756907 263.0026207 23.03950536 C259.69799752 23.05598419 256.39479775 23.05007508 253.09026146 23.03457427 C249.52370716 23.02325548 245.95727672 23.04072603 242.39074707 23.05447388 C235.40705372 23.07670534 228.42362907 23.07190562 221.43992519 23.05741067 C215.76408623 23.04611802 210.08832256 23.04458763 204.41247559 23.05002975 C203.60461538 23.05079592 202.79675518 23.05156209 201.96441436 23.05235147 C200.32325393 23.0539501 198.68209352 23.05557116 197.04093313 23.05721442 C181.65228358 23.07147165 166.26378296 23.05507965 150.87515783 23.02821259 C137.67141736 23.0058738 124.46789667 23.00975394 111.26416016 23.0328064 C95.93053188 23.05956491 80.59703413 23.07009836 65.26338577 23.05474508 C63.62826794 23.05315233 61.9931501 23.05158048 60.35803223 23.05002975 C59.55352623 23.04925838 58.74902023 23.048487 57.92013526 23.04769225 C52.25120901 23.04337539 46.58236557 23.05066147 40.91345215 23.06242752 C34.00473056 23.07645166 27.096293 23.07265463 20.18760395 23.0460238 C16.66269613 23.03288414 13.13826184 23.02773506 9.61335754 23.04426956 C5.79258915 23.06192082 1.97259591 23.04084344 -1.84814453 23.01586914 C-3.52002523 23.03259955 -3.52002523 23.03259955 -5.2256813 23.04966795 C-13.58936892 22.94331709 -13.58936892 22.94331709 -17.29327393 19.96797752 C-20.08909795 16.85233771 -20.58144773 15.39626369 -20.77880859 11.37313843 C-20.50656676 8.06734475 -19.54423008 6.05733194 -17.61474609 3.38095093 C-12.04481884 -0.44251033 -6.49625929 -0.03955698 0 0 Z " fill="#FFFFFF" transform="translate(930.61474609375,400.6190490722656)"/>
<path d="M0 0 C1.1973024 -0.0071553 2.3946048 -0.01431061 3.62818909 -0.02168274 C4.96206639 -0.02452313 6.29594397 -0.02723485 7.62982178 -0.02983093 C9.02923248 -0.03609482 10.42864151 -0.04274155 11.82804871 -0.04974365 C15.63605714 -0.06716159 19.444053 -0.07770782 23.25209141 -0.08594918 C25.63112417 -0.09109825 28.01015303 -0.09717406 30.38918304 -0.10346031 C37.83225282 -0.12251565 45.27531266 -0.13674537 52.71840215 -0.14507228 C61.31067537 -0.15484336 69.90269087 -0.18115788 78.49487329 -0.22157317 C85.13529436 -0.25173601 91.77564158 -0.26654135 98.41612983 -0.26985329 C102.38245809 -0.27220383 106.34851115 -0.28116422 110.31476593 -0.30631447 C114.04783374 -0.32960305 117.78044533 -0.33382555 121.51356697 -0.32355309 C123.53300507 -0.32282201 125.55242004 -0.3419083 127.57176208 -0.36161804 C138.64778885 -0.29798155 138.64778885 -0.29798155 143.37103271 4.14717102 C145.35880833 6.99895138 145.65668261 9.15092128 145.37103271 12.58467102 C145.32978271 13.32588196 145.28853271 14.0670929 145.24603271 14.83076477 C143.87125913 18.47023233 141.78294006 20.44940669 138.37103271 22.14717102 C133.74634018 22.89882284 129.13093238 22.82112921 124.4586792 22.77827454 C123.03734444 22.78341668 121.61601606 22.79070019 120.19470215 22.79995728 C116.34542978 22.81844084 112.4968518 22.80555327 108.64760852 22.78586698 C104.61539095 22.76945687 100.58321654 22.7782965 96.55097961 22.78338623 C89.78133069 22.78790405 83.01195836 22.77205559 76.24237061 22.74409485 C68.41918181 22.71203124 60.59649145 22.7120646 52.77326721 22.72930962 C45.24150758 22.74517953 37.70993044 22.73843905 30.17817879 22.7213726 C26.9753031 22.71450556 23.77257385 22.7155309 20.56970024 22.72291756 C16.79791916 22.73058541 13.02670464 22.71843879 9.25502014 22.69106865 C7.87194564 22.68418934 6.48881817 22.68408206 5.10574532 22.69128418 C3.21605519 22.69998973 1.32629839 22.68157133 -0.56330872 22.66183472 C-2.14862569 22.65762434 -2.14862569 22.65762434 -3.76596928 22.6533289 C-7.95370112 21.91296741 -10.41694125 19.68974961 -13.00396729 16.39717102 C-13.98768449 12.8557891 -13.71386296 9.60785089 -12.62896729 6.14717102 C-8.54889207 1.23015729 -6.22680951 0.02546683 0 0 Z " fill="#FFFFFF" transform="translate(1070.6289672851563,169.8528289794922)"/>
<path d="M0 0 C1.1973024 -0.0071553 2.3946048 -0.01431061 3.62818909 -0.02168274 C4.96206639 -0.02452313 6.29594397 -0.02723485 7.62982178 -0.02983093 C9.02923248 -0.03609482 10.42864151 -0.04274155 11.82804871 -0.04974365 C15.63605714 -0.06716159 19.444053 -0.07770782 23.25209141 -0.08594918 C25.63112417 -0.09109825 28.01015303 -0.09717406 30.38918304 -0.10346031 C37.83225282 -0.12251565 45.27531266 -0.13674537 52.71840215 -0.14507228 C61.31067537 -0.15484336 69.90269087 -0.18115788 78.49487329 -0.22157317 C85.13529436 -0.25173601 91.77564158 -0.26654135 98.41612983 -0.26985329 C102.38245809 -0.27220383 106.34851115 -0.28116422 110.31476593 -0.30631447 C114.04783374 -0.32960305 117.78044533 -0.33382555 121.51356697 -0.32355309 C123.53300507 -0.32282201 125.55242004 -0.3419083 127.57176208 -0.36161804 C138.64778885 -0.29798155 138.64778885 -0.29798155 143.37103271 4.14717102 C145.35880833 6.99895138 145.65668261 9.15092128 145.37103271 12.58467102 C145.32978271 13.32588196 145.28853271 14.0670929 145.24603271 14.83076477 C143.87125913 18.47023233 141.78294006 20.44940669 138.37103271 22.14717102 C133.74634018 22.89882284 129.13093238 22.82112921 124.4586792 22.77827454 C123.03734444 22.78341668 121.61601606 22.79070019 120.19470215 22.79995728 C116.34542978 22.81844084 112.4968518 22.80555327 108.64760852 22.78586698 C104.61539095 22.76945687 100.58321654 22.7782965 96.55097961 22.78338623 C89.78133069 22.78790405 83.01195836 22.77205559 76.24237061 22.74409485 C68.41918181 22.71203124 60.59649145 22.7120646 52.77326721 22.72930962 C45.24150758 22.74517953 37.70993044 22.73843905 30.17817879 22.7213726 C26.9753031 22.71450556 23.77257385 22.7155309 20.56970024 22.72291756 C16.79791916 22.73058541 13.02670464 22.71843879 9.25502014 22.69106865 C7.87194564 22.68418934 6.48881817 22.68408206 5.10574532 22.69128418 C3.21605519 22.69998973 1.32629839 22.68157133 -0.56330872 22.66183472 C-2.14862569 22.65762434 -2.14862569 22.65762434 -3.76596928 22.6533289 C-7.95370112 21.91296741 -10.41694125 19.68974961 -13.00396729 16.39717102 C-13.98768449 12.8557891 -13.71386296 9.60785089 -12.62896729 6.14717102 C-8.54889207 1.23015729 -6.22680951 0.02546683 0 0 Z " fill="#FFFFFF" transform="translate(1070.6289672851563,127.85282897949219)"/>
<path d="M0 0 C1.1973024 -0.0071553 2.3946048 -0.01431061 3.62818909 -0.02168274 C4.96206639 -0.02452313 6.29594397 -0.02723485 7.62982178 -0.02983093 C9.02923248 -0.03609482 10.42864151 -0.04274155 11.82804871 -0.04974365 C15.63605714 -0.06716159 19.444053 -0.07770782 23.25209141 -0.08594918 C25.63112417 -0.09109825 28.01015303 -0.09717406 30.38918304 -0.10346031 C37.83225282 -0.12251565 45.27531266 -0.13674537 52.71840215 -0.14507228 C61.31067537 -0.15484336 69.90269087 -0.18115788 78.49487329 -0.22157317 C85.13529436 -0.25173601 91.77564158 -0.26654135 98.41612983 -0.26985329 C102.38245809 -0.27220383 106.34851115 -0.28116422 110.31476593 -0.30631447 C114.04783374 -0.32960305 117.78044533 -0.33382555 121.51356697 -0.32355309 C123.53300507 -0.32282201 125.55242004 -0.3419083 127.57176208 -0.36161804 C138.64778885 -0.29798155 138.64778885 -0.29798155 143.37103271 4.14717102 C145.35880833 6.99895138 145.65668261 9.15092128 145.37103271 12.58467102 C145.32978271 13.32588196 145.28853271 14.0670929 145.24603271 14.83076477 C143.87125913 18.47023233 141.78294006 20.44940669 138.37103271 22.14717102 C133.74634018 22.89882284 129.13093238 22.82112921 124.4586792 22.77827454 C123.03734444 22.78341668 121.61601606 22.79070019 120.19470215 22.79995728 C116.34542978 22.81844084 112.4968518 22.80555327 108.64760852 22.78586698 C104.61539095 22.76945687 100.58321654 22.7782965 96.55097961 22.78338623 C89.78133069 22.78790405 83.01195836 22.77205559 76.24237061 22.74409485 C68.41918181 22.71203124 60.59649145 22.7120646 52.77326721 22.72930962 C45.24150758 22.74517953 37.70993044 22.73843905 30.17817879 22.7213726 C26.9753031 22.71450556 23.77257385 22.7155309 20.56970024 22.72291756 C16.79791916 22.73058541 13.02670464 22.71843879 9.25502014 22.69106865 C7.87194564 22.68418934 6.48881817 22.68408206 5.10574532 22.69128418 C3.21605519 22.69998973 1.32629839 22.68157133 -0.56330872 22.66183472 C-2.14862569 22.65762434 -2.14862569 22.65762434 -3.76596928 22.6533289 C-7.95370112 21.91296741 -10.41694125 19.68974961 -13.00396729 16.39717102 C-13.98768449 12.8557891 -13.71386296 9.60785089 -12.62896729 6.14717102 C-8.54889207 1.23015729 -6.22680951 0.02546683 0 0 Z " fill="#FFFFFF" transform="translate(1070.6289672851563,64.85282897949219)"/>
</svg>
